# xmcd CD database file
#
# Track frame offsets:
#	150
#	7805
#	13755
#	21150
#	31130
#	40275
#	53050
#	61960
#	72812
#	78592
#	87545
#	96395
#	105775
#	112832
#	119180
#	129192
#	136935
#	142842
#
# Disc length: 2004 seconds
#
# Revision: 4
# Processed by: cddbd v1.5.2PL0 Copyright (c) Steve Scherf et al.
# Submitted via: CDex 1.51
#
DISCID=e207d212
DTITLE=Various Artist - Jimmy Reeves and Buck Owens - Their Golden Hits
DYEAR=2001
DGENRE=Country
TTITLE0=Buck Owens - Down On The Corner Of Love
TTITLE1=Jimmy Reeves - Have I Told You Lately That I Love You
TTITLE2=Buck Owens - Please Don't Take Her From Me
TTITLE3=Jimmy Reeves - Just Call Me Lonesome
TTITLE4=Buck Owens - It Don't Show On Me
TTITLE5=Jimmy Reeves - How's The World Treading You
TTITLE6=Buck Owens - Why Don't Mommy Stay With Daddy And Me
TTITLE7=Jimmy Reeves - If Heartaches Are The Fashion
TTITLE8=Buck Owens - Three Dimension Love
TTITLE9=Jimmy Reeves - Home
TTITLE10=Buck Owens - After The Dance
TTITLE11=Jimmy Reeves - Dear Heart And Gentle People
TTITLE12=Buck Owens - You're For Me
TTITLE13=Jimmy Reeves - I'm Beginning To Forget You
TTITLE14=Buck Owens - House Down The Block
TTITLE15=Jimmy Reeves - Rolypoly
TTITLE16=Buck Owens - Blue Love
TTITLE17=Buck Owens - That Ain't Right Baby
EXTD=YEAR: 2001
EXTT0=
EXTT1=
EXTT2=
EXTT3=
EXTT4=
EXTT5=
EXTT6=
EXTT7=
EXTT8=
EXTT9=
EXTT10=
EXTT11=
EXTT12=
EXTT13=
EXTT14=
EXTT15=
EXTT16=
EXTT17=
PLAYORDER=
